<?xml version="1.0" standalone="no"?>
<!DOCTYPE svg PUBLIC "-//W3C//DTD SVG 20010904//EN"
 "http://www.w3.org/TR/2001/REC-SVG-20010904/DTD/svg10.dtd">
<svg version="1.0" xmlns="http://www.w3.org/2000/svg"
 width="253.000000pt" height="253.000000pt" viewBox="0 0 253.000000 253.000000"
 preserveAspectRatio="xMidYMid meet">

<g transform="translate(0.000000,253.000000) scale(0.100000,-0.100000)"
fill="#000000" stroke="none">
<path d="M905 1916 c-43 -18 -77 -62 -108 -137 -15 -35 -110 -276 -212 -536
-205 -521 -209 -536 -157 -591 35 -37 72 -48 121 -36 43 11 65 47 126 208 l42
111 264 0 263 0 51 -125 c64 -157 69 -166 105 -185 93 -48 194 33 171 137 -6
24 -89 239 -186 478 -97 239 -190 469 -206 510 -33 87 -78 147 -125 166 -42
17 -110 17 -149 0z m173 -518 c50 -139 92 -256 92 -260 0 -5 -85 -8 -190 -8
-104 0 -190 3 -190 6 0 15 184 514 189 514 4 0 48 -114 99 -252z"/>
<path d="M1848 1913 c-59 -37 -58 -29 -58 -646 l0 -564 23 -34 c57 -84 166
-77 208 14 17 40 19 73 19 582 0 327 -4 554 -10 576 -15 53 -50 81 -107 86
-34 3 -56 -1 -75 -14z"/>
</g>
</svg>
